  <!-- <svg width="252" height="302" viewBox="0 0 252 302" fill="none" xmlns="http://www.w3.org/2000/svg">
            <path d="M146 1H21C9.95431 1 1 9.9543 1 21V281C1 292.046 9.9543 301 21 301H231C242.046 301 251 292.046 251 281V107.667C251 96.621 242.046 87.6667 231 87.6667H186C174.954 87.6667 166 78.7124 166 67.6667V21C166 9.9543 157.046 1 146 1Z" stroke="black"/>
            </svg> -->




<!-- <svg width="352" height="302" viewBox="0 0 352 302" fill="none" xmlns="http://www.w3.org/2000/svg">
<path d="M247 90V11C247 5.47715 242.523 1 237 1H104.6H11C5.47715 1 1 5.47716 1 11V291C1 296.523 5.47715 301 11 301H176H341C346.523 301 351 296.523 351 291V110C351 104.477 346.523 100 341 100H257C251.477 100 247 95.5229 247 90Z" stroke="black"/> -->
  <!-- <image src="Assests/images/screen1/pic1.png" x="20" y="20" height="150" width="150" /> -->
<!-- </svg> -->



<svg width="350" height="300" viewBox="0 0 350 300" fill="none" xmlns="http://www.w3.org/2000/svg">
<path d="M0 10C0 4.47716 4.47715 0 10 0H229.815C235.338 0 239.815 4.47715 239.815 10V95.4795C239.815 101.002 244.292 105.479 249.815 105.479H340C345.523 105.479 350 109.957 350 115.479V290C350 295.523 345.523 300 340 300H10C4.47715 300 0 295.523 0 290V10Z" fill="#000000"/>
</svg>





